PathFileType	4	(X/Y/Z)	30_2_52_p0_0-457.trc
DataRate	CameraRate	NumFrames	NumMarkers	Units	OrigDataRate	OrigDataStartFrame	OrigNumFrames
52.0	52.0	6	27	m	52.0	114	458
Frame#	Time	RHip			RKnee			RAnkle			RBigToe			RSmallToe			RHeel			LHip			LKnee			LAnkle			LBigToe			LSmallToe			LHeel			Neck			Head			Nose			RShoulder			RElbow			RWrist			RThumb			RIndex			RPinky			LShoulder			LElbow			LWrist			LThumb			LIndex			LPinky			
		X1	Y1	Z1	X2	Y2	Z2	X3	Y3	Z3	X4	Y4	Z4	X5	Y5	Z5	X6	Y6	Z6	X7	Y7	Z7	X8	Y8	Z8	X9	Y9	Z9	X10	Y10	Z10	X11	Y11	Z11	X12	Y12	Z12	X13	Y13	Z13	X14	Y14	Z14	X15	Y15	Z15	X16	Y16	Z16	X17	Y17	Z17	X18	Y18	Z18	X19	Y19	Z19	X20	Y20	Z20	X21	Y21	Z21	X22	Y22	Z22	X23	Y23	Z23	X24	Y24	Z24	X25	Y25	Z25	X26	Y26	Z26	X27	Y27	Z27	
114	2.1923076923076925	0.26788239340335135	0.519777054541138	1.000476496884414	0.29799970690051447	0.5456461859299898	1.4018609741358512	0.29323941558209293	0.599391601521685	1.8062655447510352	0.269252183758713	0.3719742250999441	1.7992633238868347	0.3242766016741739	0.4211295109578892	1.8224832337211765	0.2726106032040439	0.6374792704041593	1.8444717306391365	0.07000727092628856	0.5282409428626381	1.013480847790298	0.06765836771144952	0.5531962990484666	1.4035808637843705	0.07109181451425434	0.5638447663976197	1.7760218273910382	0.07082312455869282	0.40859245979685094	1.8241398594644367	0.029912587391438785	0.4220940063171519	1.819748593649868	0.08947496116026978	0.6253198007790114	1.844738217629941	0.1572751623331472	0.5632909745381327	0.5221488805008876	0.1648866934790284	0.5143524432964219	0.2645465876263798	0.18056012360753898	0.45584312078532674	0.4072069527362618	0.30156130919343477	0.5996538096507997	0.5779452439148256	0.4041393503363576	0.4787230173512017	0.7438537222095647	0.4243798780619396	0.3339777240799694	0.6551801645371506	0.3778171605131195	0.23735453355701375	0.6092891945135823	0.3853131912086502	0.23024484297138503	0.6080314375398377	0.4269407745601095	0.2237816447693611	0.6448536392410468	0.025967313709657703	0.5467412692820665	0.591720038513062	-0.04505472948189242	0.4868118958176176	0.770527911383586	0.03527881701064395	0.2897811715972617	0.8426474845421789	0.09933691361068965	0.22436390688734575	0.8382597982850438	0.09302618315579704	0.2112714677156471	0.8569146504028464	0.0647395566547114	0.18620765089835956	0.89176258683358
115	2.2115384615384617	0.2679074208042269	0.5195088659557574	1.0005585067388776	0.2979241585348586	0.5456250200600672	1.4016923400130519	0.29323615531800784	0.5994986346276832	1.8063925981958104	0.2693128694156814	0.3721486860086431	1.7996633152644759	0.32377949793447436	0.42281275082670067	1.8186701366072642	0.272600624201245	0.6374364617591901	1.844661445955789	0.07006735548302422	0.5281205034235803	1.013427819131918	0.066884989287119	0.5534762711092057	1.4080905242480282	0.07154002121439262	0.5621093586835375	1.7795824502186777	0.07090746294745459	0.4090161109881622	1.8243520844176704	0.031072529700040992	0.42213738587065236	1.8152210484964184	0.0943598879622681	0.6083321800150067	1.8342852121089188	0.16021865137494667	0.5750660998679983	0.5165807001014646	0.16847107829205177	0.5013526308299289	0.26313968348704325	0.18402121380694444	0.44339221233283593	0.40508310675162323	0.29811748140088357	0.6273276081583492	0.583902415590353	0.40457725415330315	0.47883165942582845	0.7397665335154131	0.4292394754893235	0.33318894183069975	0.628509902750087	0.38231259298074044	0.23347067123957224	0.570005838291056	0.3945243076653367	0.2322284208673951	0.5725942394639939	0.4183891317351323	0.24380459319771935	0.5979212514893669	0.025830664290376906	0.546384929555131	0.591631509560076	-0.044888442992598504	0.4866813331256041	0.7704812928026786	0.04276033724370403	0.30256498503353446	0.8427803537434773	0.10392464883211512	0.22704779025965033	0.8432098524998306	0.09719982406017168	0.2214340796150849	0.8575331515859821	0.07459400607665069	0.20807706255103212	0.8992447011391959
116	2.230769230769231	0.27150168264037433	0.520837793733399	1.0048816535885778	0.2972124484077384	0.5457665854978779	1.406336613184006	0.2932200559772225	0.5995085603663606	1.806412122918115	0.27049126786332534	0.37342433431553407	1.8049156620353408	0.3289369055536143	0.4256905293983776	1.8201477992843857	0.2724197644559389	0.6372988098970166	1.8443697218898374	0.07370936162903535	0.53093853282799	1.0101108105965528	0.07125878579077348	0.5554124147977814	1.4086501672102987	0.07107487678962475	0.564049666942779	1.7758423318584444	0.07419879755328954	0.4226602230634111	1.8330557857422958	0.03065871871433885	0.4240015859255352	1.8121081719060785	0.08938966074690072	0.6249282364029202	1.8445482669801672	0.16070027478421967	0.5757954444635509	0.520539809359897	0.16855164248839052	0.501124775252465	0.2629099023773918	0.18402908647572425	0.4431797482650801	0.405036548772407	0.2931689702497337	0.6125013647297971	0.5844667997028289	0.41887402564556175	0.46617607249751664	0.7384219221037867	0.43318851493075106	0.3459788225226898	0.6079888345617777	0.3784608995082716	0.2545358736820599	0.5350323883446628	0.387879684061718	0.2429743621444365	0.5461655851728225	0.4205461636084945	0.23528458451819878	0.5683400412183262	0.025807190271722482	0.5458507069869681	0.5915418226114812	-0.04027452736142527	0.47313380549843786	0.7700235870499095	0.042604935241935676	0.3022744673151042	0.8466189973274748	0.10754835098512976	0.22831118484370347	0.847681783201386	0.10146583126817876	0.22281588609640807	0.8665140981186481	0.08142887208388254	0.22753598499811606	0.9056361202127727
117	2.25	0.2722502217441462	0.5199103461579008	1.0045422163771958	0.2979761572695304	0.5454850433973659	1.4017212284832683	0.2932126551031435	0.5994201292896351	1.8064184325666308	0.26931298033606127	0.3719139095107924	1.7994172917184337	0.32866467877078176	0.424389748704951	1.819592136402574	0.27249735747997417	0.6372925870173969	1.8448033728247382	0.0702816037003294	0.5184652807044264	1.0060633751877546	0.07206114122172416	0.5553123718690705	1.4042840761703117	0.07106827624270304	0.5640656541837223	1.775735427188153	0.06622275925424316	0.4231333075764061	1.8339252305385982	0.026080850550771893	0.4357995038546543	1.8241553993399262	0.08941464086257069	0.6250195226631615	1.844573913240668	0.1606157919145093	0.5756780191086324	0.5205642745701615	0.16857486042560144	0.5011509954405404	0.26282724654093037	0.18403935126890666	0.4430715628790157	0.40498377111901196	0.28905083601994325	0.5996187794976335	0.5818651236763934	0.4145241500310884	0.4640456398348252	0.7295610051258143	0.43197826723533567	0.33700356266088344	0.5910192179777753	0.3720798988872247	0.24985949371015978	0.5070175563280175	0.3876615796922472	0.2479002192985895	0.5087669515405479	0.42291693359109467	0.2717504064897209	0.5535954989900277	0.025841820819777126	0.5454851898368899	0.5915178984424844	-0.030717027677512634	0.46342593880716987	0.7708267104342247	0.049155577483545036	0.3143157383394865	0.8540911607991134	0.1154601476541706	0.23869340174137904	0.8618831551293077	0.1048073052335068	0.22423743955876124	0.8822836934344481	0.08537430853563246	0.2171613576893837	0.9057800539237734
118	2.269230769230769	0.2670768727558314	0.5198941568195523	1.0015164894219681	0.2979669580306667	0.5456622388083252	1.401703337630983	0.29320577378100976	0.5994953059069688	1.806330733940321	0.26932343603859	0.37201003185791937	1.7993839425799194	0.3288347542759272	0.4251326231090428	1.8198644855079433	0.27245074618760157	0.6374296494157925	1.8445607334262046	0.0697803390859822	0.5193895386568185	1.0024231422673278	0.06761813770897623	0.5532588378194919	1.403568519058829	0.07107293508828963	0.564185691987557	1.7757982251321043	0.07083181886735024	0.40915047848192787	1.8244378366805365	0.031010535670889523	0.42224622225129893	1.815213170137858	0.08941736254916198	0.6252396171570086	1.844629313836267	0.15727604180096735	0.5645723454598388	0.5184235153176926	0.16863605381749341	0.5009125613923814	0.2629083676399605	0.18397846272956123	0.442830044604594	0.4048900053673951	0.2884339217859183	0.5981544854243163	0.5778732089397574	0.4170444121109584	0.4507187033573002	0.7179220193227869	0.4351397753958156	0.34793167110843715	0.578436277264261	0.37671541413376014	0.2528345744908706	0.4844564818869616	0.39959859214390475	0.24931080339319167	0.4858821696504556	0.4223885233568181	0.2829399734432894	0.5248382738492714	0.025895784685342604	0.5453852021055643	0.591548758991652	-0.030491714398665524	0.4632416672424996	0.770967119510062	0.049368067901832194	0.31432657019748134	0.8542343821608789	0.12347351105075458	0.22880620310035812	0.8690638670419422	0.1124159003495139	0.22550985897779566	0.8862471648094475	0.0853666550516401	0.21728385222875046	0.9062077260231115
119	2.2884615384615383	0.2633731254625591	0.5337503786223737	1.0066165602406003	0.29792696863286944	0.5456766878364171	1.4016842863078018	0.2931082658162443	0.5993093956960631	1.8060406603587034	0.2704324447906119	0.37315331746187275	1.8048345220070927	0.3237940583895531	0.4225003350310682	1.8185025738238068	0.27248836611710886	0.6373959840431755	1.8445664563713542	0.06979493343436975	0.5191827645792705	1.0024377880900563	0.0677277707817821	0.5533085252806852	1.4037323689278862	0.07110670457927354	0.5642712541000251	1.7756664717215376	0.07081158150311788	0.40891539828120926	1.8243257868125786	0.030972209317838707	0.4220894911151015	1.8151017126091165	0.0894799587396943	0.6252563619200365	1.8446220430052942	0.1567260110450641	0.56352959446212	0.5147418630650341	0.16857767670553941	0.5011554787698831	0.26301327975879546	0.18415564018263988	0.4434375554409321	0.40143062613343905	0.2883591290479927	0.5980912086623157	0.5778610918496987	0.4172456671107844	0.45073397186522957	0.7178277550822534	0.43277077769516825	0.34941686181011594	0.5567134585150505	0.3827468301514085	0.26548382167279544	0.46261121493733137	0.4083968229045473	0.26431793552730043	0.4573353543619237	0.43201390730741096	0.32548432187289056	0.5203507226538918	0.02580543454047	0.5446682540619964	0.5913702336474961	-0.025773791872584488	0.45034727449416906	0.7671963748401306	0.049516478669099466	0.31441363970230457	0.85436509984676	0.12320928169618336	0.22966954717409466	0.8727499617107554	0.11553185799975209	0.22786485359829747	0.8871133304761312	0.0885169340948938	0.2284846038238079	0.9107055232160723
